<?xml version="1.0" encoding="UTF-8" standalone="no"?>
<!-- Created with Inkscape (http://www.inkscape.org/) -->

<svg
   xmlns:dc="http://purl.org/dc/elements/1.1/"
   xmlns:cc="http://creativecommons.org/ns#"
   xmlns:rdf="http://www.w3.org/1999/02/22-rdf-syntax-ns#"
   xmlns:svg="http://www.w3.org/2000/svg"
   xmlns="http://www.w3.org/2000/svg"
   xmlns:sodipodi="http://sodipodi.sourceforge.net/DTD/sodipodi-0.dtd"
   xmlns:inkscape="http://www.inkscape.org/namespaces/inkscape"
   width="24"
   height="24"
   viewBox="0 0 24.000001 24.000001"
   id="svg2"
   version="1.1"
   inkscape:version="0.91 r13725"
   sodipodi:docname="climatologia.svg">
  <defs
     id="defs4" />
  <sodipodi:namedview
     id="base"
     pagecolor="#ffffff"
     bordercolor="#666666"
     borderopacity="1.0"
     inkscape:pageopacity="0.0"
     inkscape:pageshadow="2"
     inkscape:zoom="11.313709"
     inkscape:cx="3.9720565"
     inkscape:cy="5.1940548"
     inkscape:document-units="px"
     inkscape:current-layer="layer1"
     showgrid="false"
     units="px"
     showborder="true"
     inkscape:showpageshadow="false"
     inkscape:window-width="1280"
     inkscape:window-height="751"
     inkscape:window-x="0"
     inkscape:window-y="0"
     inkscape:window-maximized="1" />
  <metadata
     id="metadata7">
    <rdf:RDF>
      <cc:Work
         rdf:about="">
        <dc:format>image/svg+xml</dc:format>
        <dc:type
           rdf:resource="http://purl.org/dc/dcmitype/StillImage" />
        <dc:title></dc:title>
      </cc:Work>
    </rdf:RDF>
  </metadata>
  <g
     inkscape:label="Capa 1"
     inkscape:groupmode="layer"
     id="layer1"
     transform="translate(0,-1028.3622)">
    <rect
       style="opacity:0.26199999;fill:none;stroke-width:2;stroke-linecap:round;stroke-miterlimit:4;stroke-dasharray:none"
       id="rect4153"
       width="20.083"
       height="19.087999"
       x="0.50507617"
       y="1031.149" />
    <rect
       style="opacity:0.26199999;fill:none;stroke-width:2;stroke-linecap:round;stroke-miterlimit:4;stroke-dasharray:none"
       id="rect4155"
       width="20"
       height="20"
       x="-5.3033009"
       y="1035.6947" />
    <rect
       style="opacity:0.26199999;fill:none;stroke-width:2;stroke-linecap:round;stroke-miterlimit:4;stroke-dasharray:none"
       id="rect4157"
       width="20"
       height="20"
       x="-15.278557"
       y="1033.4219" />
    <path
       style="color:#000000;font-style:normal;font-variant:normal;font-weight:normal;font-stretch:normal;font-size:medium;line-height:normal;font-family:sans-serif;text-indent:0;text-align:start;text-decoration:none;text-decoration-line:none;text-decoration-style:solid;text-decoration-color:#000000;letter-spacing:normal;word-spacing:normal;text-transform:none;direction:ltr;block-progression:tb;writing-mode:lr-tb;baseline-shift:baseline;text-anchor:start;white-space:normal;clip-rule:nonzero;display:inline;overflow:visible;visibility:visible;opacity:1;isolation:auto;mix-blend-mode:normal;color-interpolation:sRGB;color-interpolation-filters:linearRGB;solid-color:#000000;solid-opacity:1;fill:#ff6600;fill-opacity:1;fill-rule:nonzero;stroke:none;stroke-width:2.00000024;stroke-linecap:butt;stroke-linejoin:round;stroke-miterlimit:4;stroke-dasharray:none;stroke-dashoffset:0;stroke-opacity:1;color-rendering:auto;image-rendering:auto;shape-rendering:auto;text-rendering:auto;enable-background:accumulate"
       d="m 13.007466,1028.9775 c -0.994788,-0.068 -3.0270014,4.7258 -3.9182867,5.1203 -0.7099275,0.3143 -4.9928516,-4.108 -5.5721061,-3.5793 -0.549835,0.5019 2.5961048,5.946 2.2146244,6.5795 -0.6237553,1.036 -4.79020911,1.6775 -4.79020911,2.8541 0,0.9091 4.00164841,2.3011 4.36276281,3.0814 0.3437724,0.7428 -4.0286635,6.4501 -3.4297752,7.0163 0.7370908,0.6969 6.5021139,-3.8002 7.5067521,-3.4695 0.7226928,0.2379 1.8511898,4.7864 2.6539658,4.7864 1.285594,0 2.146482,-4.7504 3.189327,-5.3293 0.699202,-0.3881 5.829071,4.1504 6.343721,3.5646 0.483129,-0.55 -3.636207,-6.2142 -3.367439,-6.8956 0.272769,-0.6916 4.664885,-1.8821 4.664885,-2.6659 0,-1.0448 -4.419984,-1.4828 -4.799331,-2.2791 -0.280112,-0.588 3.92583,-5.6382 3.415509,-6.1675 -0.571601,-0.5929 -5.891212,3.336 -6.702552,2.8809 -0.869415,-0.4876 -0.77913,-5.4293 -1.771848,-5.4973 z m -1.325825,7.0381 c 2.783323,0 4.941406,2.0354 4.941406,4.4668 0,2.4315 -2.158083,4.4649 -4.941406,4.4649 -2.7833235,0 0.894178,-2.2102 0.894178,-4.6417 0,-2.4314 -3.6775015,-4.29 -0.894178,-4.29 z"
       id="path4238"
       inkscape:connector-curvature="0"
       sodipodi:nodetypes="ssssssssssssssssssssss" />
  </g>
</svg>
