<?xml version="1.0" encoding="UTF-8" standalone="no"?>
<!-- Created with Inkscape (http://www.inkscape.org/) -->

<svg
   xmlns:dc="http://purl.org/dc/elements/1.1/"
   xmlns:cc="http://creativecommons.org/ns#"
   xmlns:rdf="http://www.w3.org/1999/02/22-rdf-syntax-ns#"
   xmlns:svg="http://www.w3.org/2000/svg"
   xmlns="http://www.w3.org/2000/svg"
   xmlns:sodipodi="http://sodipodi.sourceforge.net/DTD/sodipodi-0.dtd"
   xmlns:inkscape="http://www.inkscape.org/namespaces/inkscape"
   width="24"
   height="24"
   viewBox="0 0 24.000001 24.000001"
   id="svg2"
   version="1.1"
   inkscape:version="0.91 r13725"
   sodipodi:docname="lluvia.svg">
  <defs
     id="defs4" />
  <sodipodi:namedview
     id="base"
     pagecolor="#ffffff"
     bordercolor="#666666"
     borderopacity="1.0"
     inkscape:pageopacity="0.0"
     inkscape:pageshadow="2"
     inkscape:zoom="11.313709"
     inkscape:cx="-2.0813195"
     inkscape:cy="12.09037"
     inkscape:document-units="px"
     inkscape:current-layer="layer1"
     showgrid="false"
     units="px"
     showborder="true"
     inkscape:showpageshadow="false"
     inkscape:window-width="1280"
     inkscape:window-height="751"
     inkscape:window-x="0"
     inkscape:window-y="0"
     inkscape:window-maximized="1" />
  <metadata
     id="metadata7">
    <rdf:RDF>
      <cc:Work
         rdf:about="">
        <dc:format>image/svg+xml</dc:format>
        <dc:type
           rdf:resource="http://purl.org/dc/dcmitype/StillImage" />
        <dc:title></dc:title>
      </cc:Work>
    </rdf:RDF>
  </metadata>
  <g
     inkscape:label="Capa 1"
     inkscape:groupmode="layer"
     id="layer1"
     transform="translate(0,-1028.3622)">
    <rect
       style="opacity:0.26199999;fill:none;stroke-width:2;stroke-linecap:round;stroke-miterlimit:4;stroke-dasharray:none"
       id="rect4153"
       width="20.083"
       height="19.087999"
       x="0.50507617"
       y="1031.149" />
    <rect
       style="opacity:0.26199999;fill:none;stroke-width:2;stroke-linecap:round;stroke-miterlimit:4;stroke-dasharray:none"
       id="rect4155"
       width="20"
       height="20"
       x="-5.3033009"
       y="1035.6947" />
    <rect
       style="opacity:0.26199999;fill:none;stroke-width:2;stroke-linecap:round;stroke-miterlimit:4;stroke-dasharray:none"
       id="rect4157"
       width="20"
       height="20"
       x="-15.278557"
       y="1033.4219" />
    <ellipse
       style="opacity:1;fill:none;fill-opacity:1;stroke:#ff6600;stroke-width:1.00000012;stroke-linecap:butt;stroke-linejoin:round;stroke-miterlimit:4;stroke-dasharray:none;stroke-opacity:1"
       id="path4232"
       cx="5.71875"
       cy="1033.5809"
       rx="2.46875"
       ry="2.15625" />
    <ellipse
       style="opacity:1;fill:none;fill-opacity:1;stroke:#ff6600;stroke-width:1.00000012;stroke-linecap:butt;stroke-linejoin:round;stroke-miterlimit:4;stroke-dasharray:none;stroke-opacity:1"
       id="path4234"
       cx="9.8125"
       cy="1033.9872"
       rx="3.5"
       ry="2.875" />
    <ellipse
       style="opacity:1;fill:none;fill-opacity:1;stroke:#ff6600;stroke-width:0.83605379;stroke-linecap:butt;stroke-linejoin:round;stroke-miterlimit:4;stroke-dasharray:none;stroke-opacity:1"
       id="path4236"
       cx="17.09375"
       cy="1034.0497"
       rx="3.8632231"
       ry="3.2069731" />
    <ellipse
       style="opacity:1;fill:none;fill-opacity:1;stroke:#ff6600;stroke-width:1.00000012;stroke-linecap:butt;stroke-linejoin:round;stroke-miterlimit:4;stroke-dasharray:none;stroke-opacity:1"
       id="path4238"
       cx="14.6875"
       cy="1037.2997"
       rx="4.4375"
       ry="3.875" />
    <ellipse
       style="opacity:1;fill:none;fill-opacity:1;stroke:#ff6600;stroke-width:1;stroke-linecap:butt;stroke-linejoin:round;stroke-miterlimit:4;stroke-dasharray:none;stroke-opacity:1"
       id="path4240"
       cx="8.5625"
       cy="1037.5497"
       rx="2.75"
       ry="2.125" />
    <path
       style="color:#000000;font-style:normal;font-variant:normal;font-weight:normal;font-stretch:normal;font-size:medium;line-height:normal;font-family:sans-serif;text-indent:0;text-align:start;text-decoration:none;text-decoration-line:none;text-decoration-style:solid;text-decoration-color:#000000;letter-spacing:normal;word-spacing:normal;text-transform:none;direction:ltr;block-progression:tb;writing-mode:lr-tb;baseline-shift:baseline;text-anchor:start;white-space:normal;clip-rule:nonzero;display:inline;overflow:visible;visibility:visible;opacity:1;isolation:auto;mix-blend-mode:normal;color-interpolation:sRGB;color-interpolation-filters:linearRGB;solid-color:#000000;solid-opacity:1;fill:#ff6600;fill-opacity:1;fill-rule:nonzero;stroke:#ff6600;stroke-width:0.2;stroke-linecap:butt;stroke-linejoin:round;stroke-miterlimit:4;stroke-dasharray:none;stroke-dashoffset:0;stroke-opacity:1;color-rendering:auto;image-rendering:auto;shape-rendering:auto;text-rendering:auto;enable-background:accumulate"
       d="m 9.7969079,1041.118 c -0.2769984,0.098 -1.8170626,1.8141 -2.0017215,2.0538 -0.1846589,0.2398 -0.2949219,0.563 -0.2949219,0.9199 0,0.357 0.110263,0.6822 0.2949219,0.9219 0.1846589,0.2398 0.4482207,0.3965 0.7421875,0.3965 0.2939668,0 0.5575286,-0.1567 0.7421875,-0.3965 0.1846589,-0.2397 0.2949219,-0.5649 0.2949219,-0.9219 0,-0.3569 0.3979701,-1.6524 0.2133112,-1.8922 -0.1775056,-0.2429 1.4066435,-1.5781 0.00911,-1.0815 z m -1.259534,1.8565 c 0.2238001,0 0.429335,0.1176 0.5839844,0.3184 0.1546494,0.2008 0.2539062,0.4835 0.2539062,0.7988 0,0.3153 -0.099257,0.6 -0.2539062,0.8008 -0.1546494,0.2008 -0.3601843,0.3164 -0.5839844,0.3164 -0.2238001,0 -0.429335,-0.1156 -0.5839844,-0.3164 -0.1546494,-0.2008 -0.2539062,-0.4855 -0.2539062,-0.8008 0,-0.3153 0.099257,-0.598 0.2539062,-0.7988 0.1546494,-0.2008 0.3601843,-0.3184 0.5839844,-0.3184 z"
       id="path4248"
       inkscape:connector-curvature="0"
       sodipodi:nodetypes="scscscscssssssssss" />
    <path
       style="color:#000000;font-style:normal;font-variant:normal;font-weight:normal;font-stretch:normal;font-size:medium;line-height:normal;font-family:sans-serif;text-indent:0;text-align:start;text-decoration:none;text-decoration-line:none;text-decoration-style:solid;text-decoration-color:#000000;letter-spacing:normal;word-spacing:normal;text-transform:none;direction:ltr;block-progression:tb;writing-mode:lr-tb;baseline-shift:baseline;text-anchor:start;white-space:normal;clip-rule:nonzero;display:inline;overflow:visible;visibility:visible;opacity:1;isolation:auto;mix-blend-mode:normal;color-interpolation:sRGB;color-interpolation-filters:linearRGB;solid-color:#000000;solid-opacity:1;fill:#ff6600;fill-opacity:1;fill-rule:nonzero;stroke:#ff6600;stroke-width:0.2;stroke-linecap:butt;stroke-linejoin:round;stroke-miterlimit:4;stroke-dasharray:none;stroke-dashoffset:0;stroke-opacity:1;color-rendering:auto;image-rendering:auto;shape-rendering:auto;text-rendering:auto;enable-background:accumulate"
       d="m 5.5422032,1044.5261 c -0.2769984,0.098 -1.8170627,1.8141 -2.0017216,2.0538 -0.1846589,0.2398 -0.2949219,0.563 -0.2949219,0.9199 0,0.357 0.110263,0.6822 0.2949219,0.9219 0.1846589,0.2398 0.4482207,0.3965 0.7421876,0.3965 0.2939668,0 0.5575286,-0.1567 0.7421875,-0.3965 0.1846589,-0.2397 0.2949219,-0.5649 0.2949219,-0.9219 0,-0.3569 0.3979702,-1.6524 0.2133112,-1.8922 -0.1775056,-0.2429 1.4066436,-1.5781 0.00911,-1.0815 z m -1.259534,1.8565 c 0.2238001,0 0.429335,0.1176 0.5839844,0.3184 0.1546494,0.2008 0.2539062,0.4835 0.2539062,0.7988 0,0.3153 -0.099257,0.6 -0.2539062,0.8008 -0.1546494,0.2008 -0.3601843,0.3164 -0.5839844,0.3164 -0.2238002,0 -0.4293351,-0.1156 -0.5839845,-0.3164 -0.1546494,-0.2008 -0.2539062,-0.4855 -0.2539062,-0.8008 0,-0.3153 0.099257,-0.598 0.2539062,-0.7988 0.1546494,-0.2008 0.3601843,-0.3184 0.5839845,-0.3184 z"
       id="path4248-2"
       inkscape:connector-curvature="0"
       sodipodi:nodetypes="scscscscssssssssss" />
    <path
       style="color:#000000;font-style:normal;font-variant:normal;font-weight:normal;font-stretch:normal;font-size:medium;line-height:normal;font-family:sans-serif;text-indent:0;text-align:start;text-decoration:none;text-decoration-line:none;text-decoration-style:solid;text-decoration-color:#000000;letter-spacing:normal;word-spacing:normal;text-transform:none;direction:ltr;block-progression:tb;writing-mode:lr-tb;baseline-shift:baseline;text-anchor:start;white-space:normal;clip-rule:nonzero;display:inline;overflow:visible;visibility:visible;opacity:1;isolation:auto;mix-blend-mode:normal;color-interpolation:sRGB;color-interpolation-filters:linearRGB;solid-color:#000000;solid-opacity:1;fill:#ff6600;fill-opacity:1;fill-rule:nonzero;stroke:#ff6600;stroke-width:0.2;stroke-linecap:butt;stroke-linejoin:round;stroke-miterlimit:4;stroke-dasharray:none;stroke-dashoffset:0;stroke-opacity:1;color-rendering:auto;image-rendering:auto;shape-rendering:auto;text-rendering:auto;enable-background:accumulate"
       d="m 14.999757,1039.046 c -0.276998,0.098 -1.817063,1.8141 -2.001721,2.0538 -0.184659,0.2398 -0.294922,0.563 -0.294922,0.9199 0,0.357 0.110263,0.6822 0.294922,0.9219 0.184658,0.2398 0.44822,0.3965 0.742187,0.3965 0.293967,0 0.557529,-0.1567 0.742188,-0.3965 0.184659,-0.2397 0.294922,-0.5649 0.294922,-0.9219 0,-0.3569 0.39797,-1.6524 0.213311,-1.8922 -0.177506,-0.2429 1.406643,-1.5781 0.0091,-1.0815 z m -1.259534,1.8565 c 0.2238,0 0.429335,0.1176 0.583985,0.3184 0.154649,0.2008 0.253906,0.4835 0.253906,0.7988 0,0.3153 -0.09926,0.6 -0.253906,0.8008 -0.15465,0.2008 -0.360185,0.3164 -0.583985,0.3164 -0.2238,0 -0.429335,-0.1156 -0.583984,-0.3164 -0.15465,-0.2008 -0.253907,-0.4855 -0.253907,-0.8008 0,-0.3153 0.09926,-0.598 0.253907,-0.7988 0.154649,-0.2008 0.360184,-0.3184 0.583984,-0.3184 z"
       id="path4248-20"
       inkscape:connector-curvature="0"
       sodipodi:nodetypes="scscscscssssssssss" />
    <path
       style="color:#000000;font-style:normal;font-variant:normal;font-weight:normal;font-stretch:normal;font-size:medium;line-height:normal;font-family:sans-serif;text-indent:0;text-align:start;text-decoration:none;text-decoration-line:none;text-decoration-style:solid;text-decoration-color:#000000;letter-spacing:normal;word-spacing:normal;text-transform:none;direction:ltr;block-progression:tb;writing-mode:lr-tb;baseline-shift:baseline;text-anchor:start;white-space:normal;clip-rule:nonzero;display:inline;overflow:visible;visibility:visible;opacity:1;isolation:auto;mix-blend-mode:normal;color-interpolation:sRGB;color-interpolation-filters:linearRGB;solid-color:#000000;solid-opacity:1;fill:#ff6600;fill-opacity:1;fill-rule:nonzero;stroke:#ff6600;stroke-width:0.2;stroke-linecap:butt;stroke-linejoin:round;stroke-miterlimit:4;stroke-dasharray:none;stroke-dashoffset:0;stroke-opacity:1;color-rendering:auto;image-rendering:auto;shape-rendering:auto;text-rendering:auto;enable-background:accumulate"
       d="m 6.6912518,1038.339 c -0.2769984,0.098 -1.8170627,1.8141 -2.0017216,2.0538 -0.1846589,0.2398 -0.2949219,0.563 -0.2949219,0.9199 0,0.357 0.110263,0.6822 0.2949219,0.9219 0.1846589,0.2398 0.4482208,0.3965 0.7421876,0.3965 0.2939668,0 0.5575286,-0.1567 0.7421875,-0.3965 0.1846589,-0.2397 0.2949219,-0.5649 0.2949219,-0.9219 0,-0.3569 0.3979702,-1.6524 0.2133112,-1.8922 -0.1775056,-0.2429 1.4066436,-1.5781 0.00911,-1.0815 z m -1.259534,1.8565 c 0.2238001,0 0.429335,0.1176 0.5839844,0.3184 0.1546494,0.2008 0.2539062,0.4835 0.2539062,0.7988 0,0.3153 -0.099257,0.6 -0.2539062,0.8008 -0.1546494,0.2008 -0.3601843,0.3164 -0.5839844,0.3164 -0.2238001,0 -0.429335,-0.1156 -0.5839845,-0.3164 -0.1546494,-0.2008 -0.2539062,-0.4855 -0.2539062,-0.8008 0,-0.3153 0.099257,-0.598 0.2539062,-0.7988 0.1546495,-0.2008 0.3601844,-0.3184 0.5839845,-0.3184 z"
       id="path4248-4"
       inkscape:connector-curvature="0"
       sodipodi:nodetypes="scscscscssssssssss" />
  </g>
</svg>
