<?xml version="1.0" encoding="UTF-8" standalone="no"?>
<!-- Created with Inkscape (http://www.inkscape.org/) -->

<svg
   xmlns:dc="http://purl.org/dc/elements/1.1/"
   xmlns:cc="http://creativecommons.org/ns#"
   xmlns:rdf="http://www.w3.org/1999/02/22-rdf-syntax-ns#"
   xmlns:svg="http://www.w3.org/2000/svg"
   xmlns="http://www.w3.org/2000/svg"
   xmlns:sodipodi="http://sodipodi.sourceforge.net/DTD/sodipodi-0.dtd"
   xmlns:inkscape="http://www.inkscape.org/namespaces/inkscape"
   width="16"
   height="16"
   viewBox="0 0 16.000001 16.000001"
   id="svg2"
   version="1.1"
   inkscape:version="0.91 r13725"
   sodipodi:docname="tecnica-mini-medio.svg">
  <defs
     id="defs4">
    <inkscape:perspective
       sodipodi:type="inkscape:persp3d"
       inkscape:vp_x="0 : 12.000001 : 1"
       inkscape:vp_y="0 : 1000 : 0"
       inkscape:vp_z="24.000002 : 12.000001 : 1"
       inkscape:persp3d-origin="12.000001 : 8.0000005 : 1"
       id="perspective5654" />
  </defs>
  <sodipodi:namedview
     id="base"
     pagecolor="#ffffff"
     bordercolor="#666666"
     borderopacity="1.0"
     inkscape:pageopacity="0.0"
     inkscape:pageshadow="2"
     inkscape:zoom="31.678384"
     inkscape:cx="5.7530768"
     inkscape:cy="7.7869716"
     inkscape:document-units="px"
     inkscape:current-layer="g4204"
     showgrid="false"
     units="px"
     showborder="true"
     inkscape:showpageshadow="false"
     inkscape:window-width="1280"
     inkscape:window-height="751"
     inkscape:window-x="0"
     inkscape:window-y="0"
     inkscape:window-maximized="1" />
  <metadata
     id="metadata7">
    <rdf:RDF>
      <cc:Work
         rdf:about="">
        <dc:format>image/svg+xml</dc:format>
        <dc:type
           rdf:resource="http://purl.org/dc/dcmitype/StillImage" />
        <dc:title />
      </cc:Work>
    </rdf:RDF>
  </metadata>
  <g
     inkscape:label="Capa 1"
     inkscape:groupmode="layer"
     id="layer1"
     transform="translate(0,-1036.3622)">
    <rect
       style="opacity:0.26199999;fill:none;stroke-width:2;stroke-linecap:round;stroke-miterlimit:4;stroke-dasharray:none"
       id="rect4153"
       width="20.083"
       height="19.087999"
       x="0.50507617"
       y="1031.149" />
    <rect
       style="opacity:0.26199999;fill:none;stroke-width:2;stroke-linecap:round;stroke-miterlimit:4;stroke-dasharray:none"
       id="rect4155"
       width="20"
       height="20"
       x="-5.3033009"
       y="1035.6947" />
    <rect
       style="opacity:0.26199999;fill:none;stroke-width:2;stroke-linecap:round;stroke-miterlimit:4;stroke-dasharray:none"
       id="rect4157"
       width="20"
       height="20"
       x="-15.278557"
       y="1033.4219" />
    <rect
       style="opacity:0.26199999;fill:none;stroke-width:2;stroke-linecap:round;stroke-miterlimit:4;stroke-dasharray:none"
       id="rect4153-0"
       width="20.083002"
       height="19.088001"
       x="0.649755"
       y="1031.0822" />
    <g
       id="g4204"
       transform="matrix(1.2696823,0,0,1.1408763,-2.9621465,-145.99736)">
      <path
         sodipodi:nodetypes="csssssssssssssssssssssssc"
         inkscape:connector-curvature="0"
         id="path4169"
         d="m 10.16466,1049.458 c -0.6314235,0.6042 -1.7511202,-0.1824 -2.7687012,-0.1145 -1.2862617,0.086 -2.4848466,0.858 -3.1659455,-0.012 -0.6515799,-0.8321 0.7673071,-2.0392 0.6944799,-3.0935 -0.074345,-1.0763 -0.7763713,-2.0135 -1.1364217,-3.0305 -0.1776756,-0.5019 -0.4764219,-0.9836 -0.5050762,-1.5152 -0.05332,-0.9892 0.1566328,-2.0347 0.6313453,-2.9042 0.2709697,-0.4963 0.7003597,-0.9339 1.1995562,-1.1996 0.7760567,-0.413 1.7098246,-0.4779 2.5885159,-0.5051 0.8062123,-0.025 1.6429286,0.035 2.3991123,0.3157 0.684026,0.2539 1.375842,0.6293 1.830902,1.1996 0.48995,0.614 0.740449,0.8971 0.696437,2.1267 -0.01024,0.286 -0.184557,0.6231 -0.128226,0.9037 0.129404,0.6446 1.126793,0.872 1.26269,1.5153 0.03167,0.1499 -0.02032,0.3312 -0.126269,0.4419 -0.230123,0.2403 -0.803753,0.015 -0.947018,0.3157 -0.07741,0.1623 0.16002,0.712 0.06509,0.8647 -0.111671,0.1796 -0.222098,0.1594 -0.267072,0.3662 -0.06217,0.2857 0.321396,-0.2598 0.296682,0.031 -0.0152,0.1792 -0.194968,-0.2195 -0.284105,-0.063 -0.180098,0.3155 0.322913,0.7354 0.189403,1.0733 -0.116008,0.2936 -0.45635,0.4739 -0.757614,0.5682 -0.54265,0.1698 -1.290758,-0.4529 -1.704632,-0.063 -0.6741942,0.6351 0.606065,2.1376 -0.06314,2.778 z"
         style="fill:none;fill-opacity:1;fill-rule:evenodd;stroke:#00ffff;stroke-width:1.00036788;stroke-linecap:butt;stroke-linejoin:miter;stroke-miterlimit:4;stroke-dasharray:none;stroke-opacity:1" />
      <path
         sodipodi:nodetypes="cssssssssssssssssssssssssssssssssssssc"
         inkscape:connector-curvature="0"
         id="path4171"
         d="m 8.4600271,1039.0408 c 0,0 -0.4619327,-0.4366 -0.7576144,-0.5051 -0.310246,-0.072 -0.6352462,0.061 -0.9470181,0.1263 -0.2999717,0.062 -0.6314725,0.079 -0.8838834,0.2525 -0.1733637,0.1193 -0.2900942,0.3143 -0.3788072,0.5051 -0.1183613,0.2546 0.089419,0.7876 -0.1894036,0.8208 -0.140182,0.017 -0.065404,-0.3113 -0.1894036,-0.3788 -0.1673856,-0.091 -0.4233826,-0.061 -0.5682109,0.063 -0.1823648,0.156 -0.1575545,0.4567 -0.1894036,0.6945 -0.022347,0.1669 -0.073976,0.3539 0,0.5051 0.1054228,0.2155 0.3535997,0.3346 0.5682109,0.4419 0.2146186,0.1073 0.6762708,-0.05 0.6944798,0.1894 0.015729,0.2067 -0.5017067,0.056 -0.5682108,0.2525 -0.084612,0.2498 0.1979553,0.5026 0.3788072,0.6945 0.1361661,0.1445 0.3142296,0.261 0.5050763,0.3157 0.1618338,0.046 0.3544925,0.075 0.5050763,0 0.1882354,-0.094 0.1732727,-0.4599 0.3788072,-0.5051 0.3034679,-0.067 0.5194468,0.366 0.8207489,0.442 0.2244676,0.057 0.4637758,0.019 0.6944799,0 0.2551505,-0.021 0.5446897,0.016 0.7576144,-0.1263 0.1651209,-0.1102 0.1465491,-0.4011 0.3156727,-0.5051 0.1980008,-0.1218 0.4659775,-0.02 0.6944799,-0.063 0.150614,-0.028 0.315733,-0.039 0.441942,-0.1263 0.08667,-0.06 0.144183,-0.1575 0.189404,-0.2525 0.07459,-0.1567 0.01767,-0.3697 0.126269,-0.5051 0.117781,-0.1468 0.395014,-0.1 0.505076,-0.2525 0.174031,-0.2414 0.126265,-0.5863 0.126269,-0.8839 2e-6,-0.1488 0.028,-0.3243 -0.06313,-0.442 -0.167512,-0.2163 -0.784617,-0.043 -0.757615,-0.3156 0.01059,-0.1068 0.284559,0.04 0.315673,-0.063 0.05178,-0.1709 -0.228669,-0.2821 -0.378807,-0.3788 -0.151178,-0.097 -0.333387,-0.136 -0.505077,-0.1894 -0.08284,-0.026 -0.1662991,-0.072 -0.2525382,-0.063 -0.1870967,0.021 -0.3950295,0.4052 -0.5050763,0.2525 -0.069597,-0.097 0.2525311,-0.1335 0.2525382,-0.2525 8.8e-6,-0.1488 -0.1781859,-0.2587 -0.3156727,-0.3157 -0.1555418,-0.064 -0.3399875,-0.033 -0.5050763,0 -0.2682728,0.054 -0.7576144,0.3157 -0.7576144,0.3157"
         style="fill:#00ffff;fill-opacity:1;fill-rule:evenodd;stroke:#008000;stroke-width:0.30000004;stroke-linecap:butt;stroke-linejoin:miter;stroke-miterlimit:4;stroke-dasharray:none;stroke-opacity:1" />
      <path
         sodipodi:nodetypes="csssssssssssssssssssssssssc"
         inkscape:connector-curvature="0"
         id="path4192"
         d="m 6.439722,1039.0092 c 0.04209,-0.021 0.079173,-0.063 0.126269,-0.063 0,0 0.1052243,0 0.1578364,0 0.073657,0 0.1473139,0 0.2209708,0 0.023173,0 0.1768022,-0.01 0.1894036,0 0.022826,0.014 0.073899,0.086 0.094702,0.095 0.020651,0.01 0.04209,0 0.063135,0 0.010522,0 0.031567,0 0.031567,0 0.029625,0 0.036515,0.05 0.063135,0.063 0.026715,0.013 0.021045,0 0.031567,0 0.00604,0 0.1232682,0.1203 0.126269,0.1263 0.00998,0.02 -0.01005,0.1379 0,0.1579 0.00657,0.013 0.024933,0.018 0.031567,0.032 0.00473,0.01 -0.00484,0.022 0,0.032 0.013181,0.027 0.050288,0.036 0.063135,0.063 0.00462,0.01 0,0.1098 0,0.1263 0,0.084 0,0.2525 0,0.2525 0,0.056 -0.037974,0.1064 -0.063134,0.1568 -0.00679,0.014 -0.023215,0.019 -0.031567,0.032 -0.012953,0.02 -0.018713,0.044 -0.031567,0.063 -0.016707,0.025 -0.04209,0.042 -0.063134,0.063 -0.04209,0.042 -0.08395,0.084 -0.1262691,0.1263 -0.018339,0.018 -0.1099296,0.1262 -0.1262691,0.1262 l -0.031567,0 c -0.029625,0 -0.036703,0.05 -0.063135,0.063 -0.019017,0.01 -0.044117,-0.01 -0.063135,0 -0.077825,0.039 0.010896,0.032 -0.063135,0.032"
         style="fill:none;fill-rule:evenodd;stroke:#008000;stroke-width:0.30000004;stroke-linecap:butt;stroke-linejoin:miter;stroke-miterlimit:4;stroke-dasharray:none;stroke-opacity:1" />
      <path
         sodipodi:nodetypes="csssssssssssssssssssssssssssssssc"
         inkscape:connector-curvature="0"
         id="path4194"
         d="m 6.565991,1040.2088 c 0.094702,0.095 0.1896181,0.1892 0.2841054,0.2841 0.01074,0.011 0.021045,0.021 0.031567,0.032 0.010522,0.011 0.024933,0.018 0.031567,0.032 0.00473,0.01 -0.00489,0.022 0,0.032 0.00647,0.013 0.02489,0.018 0.031567,0.032 0.00478,0.01 0,0.08 0,0.095 0,0.084 0,0.1683 0,0.2525 0,0.053 0,0.1053 0,0.1579 0,0.011 0,0.021 0,0.032 0,0.011 0.00449,0.022 0,0.032 -0.00441,0.01 -0.085414,0.095 -0.094702,0.095 0,0 -0.084179,0 -0.126269,0 -0.021045,0 -0.04209,0 -0.063135,0 -0.010522,0 -0.00485,-0.013 -0.031567,0 -0.02662,0.013 -0.036515,0.05 -0.063135,0.063 -0.026715,0.013 -0.084179,0 -0.126269,0 -0.021045,0 -0.04209,0 -0.063135,0 -0.010522,0 -0.031567,0.011 -0.031567,0 0,-0.01 0.04209,0 0.031567,0 -0.031567,0 -0.094702,0 -0.094702,0 -0.046085,0 -0.045544,0.08 -0.063131,0.1232 -0.0038,0.01 0.0049,0.022 0,0.032 -0.00647,0.013 -0.024933,0.018 -0.031567,0.032 -0.00473,0.01 0,0.021 0,0.032 0,0.047 0.00472,0.04 -0.031567,0.095 -0.0165,0.025 -0.049804,0.036 -0.063135,0.063 -0.00939,0.019 0.00835,0.043 0,0.063 -0.00412,0.01 -0.1202264,0.1232 -0.126269,0.1262 -0.0533,0.026 -0.1262691,0 -0.1894037,0 -0.012479,0 -0.1443852,0.01 -0.1578363,0 -0.013341,-0.01 -0.021292,-0.021 -0.031567,-0.031 -0.010775,-0.011 -0.021045,-0.021 -0.031567,-0.032"
         style="fill:none;fill-rule:evenodd;stroke:#008000;stroke-width:0.30000004;stroke-linecap:butt;stroke-linejoin:miter;stroke-miterlimit:4;stroke-dasharray:none;stroke-opacity:1" />
      <path
         sodipodi:nodetypes="csssssssssssssssssssssssc"
         inkscape:connector-curvature="0"
         id="path4196"
         d="m 8.2390562,1042.8289 c -0.00909,-0.022 -0.1830941,0.01 -0.2209709,0 -0.0121,0 -0.1098656,-0.1097 -0.126269,-0.1263 -0.01867,-0.019 -0.1190859,-0.1115 -0.1262691,-0.1263 -0.00484,-0.01 0.00489,-0.022 0,-0.032 -0.018766,-0.038 -0.076341,-0.057 -0.094702,-0.095 -0.00467,-0.01 0,-0.1671 0,-0.1894 0,-0.074 0,-0.1473 0,-0.221 0,-0.01 -0.00359,-0.1192 0,-0.1263 0.00661,-0.013 0.023495,-0.019 0.031567,-0.031 0.013235,-0.02 0.018589,-0.044 0.031567,-0.063 0.00882,-0.013 0.1150788,-0.1204 0.1262691,-0.1262 0.018926,-0.01 0.044117,0.01 0.063135,0 0.026432,-0.013 0.03351,-0.063 0.063135,-0.063 0,0 0.021045,0 0.031567,0 0.021045,0 0.041709,0.01 0.063135,0 0.013546,0 0.016528,-0.032 0.031567,-0.032 l 0.031567,0 c 0.2409545,0 -0.049769,0.01 0.094702,-0.063 0.03384,-0.017 0.1052242,0 0.1578363,0 0.04209,0 0.1036568,-0.022 0.1262691,0 0.00102,10e-4 0,0.087 0,0.095 0,0.011 0,0.032 0,0.032 l 0,-0.063 0,0.095"
         style="fill:none;fill-rule:evenodd;stroke:#008000;stroke-width:0.30000004;stroke-linecap:butt;stroke-linejoin:miter;stroke-miterlimit:4;stroke-dasharray:none;stroke-opacity:1" />
      <path
         sodipodi:nodetypes="cssssssssssssssssssssc"
         inkscape:connector-curvature="0"
         id="path4198"
         d="m 8.5231616,1041.8819 c 0,0 0,-0.2105 0,-0.3157 0,-0.021 -0.00503,-0.043 0,-0.063 0.012811,-0.051 0.031236,-0.063 0.063135,-0.095 0.010715,-0.011 0.026711,-0.017 0.031567,-0.032 0.00651,-0.02 -0.00669,-0.043 0,-0.063 0.00468,-0.014 0.020792,-0.021 0.031567,-0.032 0.010275,-0.01 0.018257,-0.025 0.031567,-0.032 0.013261,-0.01 0.084179,0 0.1262691,0 0.073657,0 0.1473139,0 0.2209709,0 0.073657,0 0.1473139,0 0.2209708,0 0.031567,0 0.094702,0 0.094702,0 0.029625,0 0.035565,0.052 0.063135,0.063 0.020774,0.01 0.042511,-0.01 0.063135,0 0.027666,0.011 0.037349,0.048 0.063135,0.063 0.015009,0.01 0.1118307,0 0.1262691,0 0.014117,0 0.020792,0.021 0.031567,0.032 0.010275,0.01 0.020972,0.021 0.031567,0.032 0.016547,0.017 0.086398,0.078 0.094702,0.095 0.00484,0.01 0,0.021 0,0.032 0,0.011 0,0.021 0,0.032 0,0.063 0,0.1894 0,0.1894"
         style="fill:none;fill-rule:evenodd;stroke:#008000;stroke-width:0.30000004;stroke-linecap:butt;stroke-linejoin:miter;stroke-miterlimit:4;stroke-dasharray:none;stroke-opacity:1" />
      <path
         sodipodi:nodetypes="cssssssssssssssssssssc"
         inkscape:connector-curvature="0"
         id="path4200"
         d="m 8.333758,1041.2505 c 0,-0.3146 0.029551,-0.035 -0.031567,-0.1578 -0.00492,-0.01 0.00589,-0.023 0,-0.032 -0.016456,-0.025 -0.046647,-0.038 -0.063134,-0.063 -0.0079,-0.012 0.0086,-0.1408 0,-0.1579 -0.00657,-0.013 -0.025056,-0.018 -0.031567,-0.031 -0.00495,-0.01 0,-0.081 0,-0.095 0,-0.074 0,-0.1473 0,-0.221 0,-0.084 0,-0.1683 0,-0.2525 0,-0.014 -0.00488,-0.085 0,-0.095 0.00835,-0.017 0.078155,-0.078 0.094702,-0.095 0.010595,-0.011 0.020792,-0.021 0.031567,-0.032 0.010275,-0.01 0.016528,-0.032 0.031567,-0.032 0,0 0.021045,0 0.031567,0 0.030584,0 0.1702343,0.01 0.1894036,0 0.021997,-0.011 0.041499,-0.022 0.063135,-0.032 0.018637,-0.01 0.073959,0 0.094702,0 0.052612,0 0.1052242,0 0.1578363,0 0.010522,0 0.021045,0 0.031567,0 0.010522,0 0.024127,-0.01 0.031567,0 0.00744,0.01 0,0.021 0,0.032 0,0.063 0,0.1894 0,0.1894"
         style="fill:#008000;fill-rule:evenodd;stroke:#008000;stroke-width:0.30000004;stroke-linecap:butt;stroke-linejoin:miter;stroke-miterlimit:4;stroke-dasharray:none;stroke-opacity:1" />
      <path
         sodipodi:nodetypes="csssssssssssssssssssssssssssssssc"
         inkscape:connector-curvature="0"
         id="path4202"
         d="m 8.8704015,1040.3666 c 0.094115,-0.03 -0.023492,-0.1107 0,-0.1578 0.00847,-0.017 0.078155,-0.078 0.094702,-0.095 0.010595,-0.011 0.021045,-0.021 0.031567,-0.032 0.010522,-0.011 0.024933,-0.018 0.031567,-0.032 0.00473,-0.01 -0.00479,-0.022 0,-0.032 0.00723,-0.015 0.1075523,-0.1079 0.126269,-0.1263 0.018417,-0.018 0.1117082,-0.1188 0.1262691,-0.1262 0.025312,-0.013 0.070308,0.014 0.094702,0 0.014298,-0.01 0.016528,-0.032 0.031567,-0.032 0,0 0.084179,0 0.126269,0 0.1052242,0 0.2104485,0 0.3156727,0 0.063135,0 0.1262698,0 0.1894047,0 0.03157,0 0.04556,-0.034 0.0947,0 0.01462,0.01 0.107677,0.1077 0.126269,0.1263 0.04206,0.042 0.08436,0.084 0.126269,0.1262 0.0107,0.011 0.02104,0.021 0.03157,0.032 0.01052,0.011 0.02518,0.018 0.03157,0.032 0.0045,0.01 0,0.1097 0,0.1262 0,0.011 0,0.021 0,0.032 0,0.01 0.0049,0.022 0,0.032 -0.0099,0.02 -0.170221,0.125 -0.157836,0.1578 0.01661,0.044 0.08672,0.038 0.126267,0.063 0.01365,0.01 0.01826,0.025 0.03157,0.032 0.01326,0.01 0.02105,0 0.03157,0 0.07366,0 0.208991,-0.01 0.220971,0 0.01331,0.01 0.02079,0.021 0.03157,0.032 0.01832,0.018 0.10993,0.1262 0.126269,0.1262 l 0.03157,0 c 0.03272,0 0.14246,0.064 0.157836,0.095 0.0049,0.01 0,0.021 0,0.032 0,0.011 0,0.021 0,0.032 0,0.053 0,0.1578 0,0.1578"
         style="fill:none;fill-rule:evenodd;stroke:#008000;stroke-width:0.30000004;stroke-linecap:butt;stroke-linejoin:miter;stroke-miterlimit:4;stroke-dasharray:none;stroke-opacity:1" />
    </g>
  </g>
</svg>
