<?xml version="1.0" encoding="UTF-8" standalone="no"?>
<!-- Created with Inkscape (http://www.inkscape.org/) -->

<svg
   xmlns:dc="http://purl.org/dc/elements/1.1/"
   xmlns:cc="http://creativecommons.org/ns#"
   xmlns:rdf="http://www.w3.org/1999/02/22-rdf-syntax-ns#"
   xmlns:svg="http://www.w3.org/2000/svg"
   xmlns="http://www.w3.org/2000/svg"
   xmlns:sodipodi="http://sodipodi.sourceforge.net/DTD/sodipodi-0.dtd"
   xmlns:inkscape="http://www.inkscape.org/namespaces/inkscape"
   id="svg2"
   version="1.1"
   inkscape:version="0.91 r13725"
   width="197.5"
   height="64"
   viewBox="0 0 197.5 64"
   sodipodi:docname="visor.svg">
  <metadata
     id="metadata8">
    <rdf:RDF>
      <cc:Work
         rdf:about="">
        <dc:format>image/svg+xml</dc:format>
        <dc:type
           rdf:resource="http://purl.org/dc/dcmitype/StillImage" />
        <dc:title />
      </cc:Work>
    </rdf:RDF>
  </metadata>
  <defs
     id="defs6" />
  <sodipodi:namedview
     pagecolor="#ffffff"
     bordercolor="#666666"
     borderopacity="1"
     objecttolerance="10"
     gridtolerance="10"
     guidetolerance="10"
     inkscape:pageopacity="0"
     inkscape:pageshadow="2"
     inkscape:window-width="1280"
     inkscape:window-height="751"
     id="namedview4"
     showgrid="false"
     inkscape:zoom="7.8666668"
     inkscape:cx="89.675791"
     inkscape:cy="23.489647"
     inkscape:window-x="0"
     inkscape:window-y="0"
     inkscape:window-maximized="1"
     inkscape:current-layer="text4138" />
  <path
     style="color:#000000;font-style:normal;font-variant:normal;font-weight:normal;font-stretch:normal;font-size:medium;line-height:normal;font-family:sans-serif;text-indent:0;text-align:start;text-decoration:none;text-decoration-line:none;text-decoration-style:solid;text-decoration-color:#000000;letter-spacing:normal;word-spacing:normal;text-transform:none;direction:ltr;block-progression:tb;writing-mode:lr-tb;baseline-shift:baseline;text-anchor:start;white-space:normal;clip-rule:nonzero;display:inline;overflow:visible;visibility:visible;opacity:0.5;isolation:auto;mix-blend-mode:normal;color-interpolation:sRGB;color-interpolation-filters:linearRGB;solid-color:#000000;solid-opacity:1;fill:#008000;fill-opacity:1;fill-rule:evenodd;stroke:none;stroke-width:2.5;stroke-linecap:butt;stroke-linejoin:miter;stroke-miterlimit:4;stroke-dasharray:none;stroke-dashoffset:0;stroke-opacity:1;color-rendering:auto;image-rendering:auto;shape-rendering:auto;text-rendering:auto;enable-background:accumulate"
     d="m 54.941808,3.5402467 c -3.731909,-0.63933 -7.437655,3.4936091 -9.642453,7.2998183 -1.578464,2.724949 -1.664667,4.953817 -3.772144,6.658611 -1.654781,1.338596 -3.603193,2.471296 -5.6875,2.902344 -1.794553,0.371125 -3.683911,-0.02073 -5.486328,-0.351563 -5.668272,-1.040403 -11.666277,-8.198377 -16.521484,-5.09375 -4.1209617,2.635119 -0.766138,9.799206 -1.958985,14.542969 -0.646546,2.571213 -4.1612586,5.176376 -2.7929683,7.447266 1.9352433,3.211836 7.6793193,0.03025 11.1582033,1.429687 1.083844,0.435994 2.162678,1.117719 2.816406,2.085938 1.718021,2.544513 1.398311,5.984957 2.318359,8.914062 0.656909,2.091363 1.088799,4.32857 2.28125,6.167969 1.66415,2.567013 3.883194,4.936283 6.558594,6.419922 0.685767,0.380291 1.502643,0.585577 2.286181,0.554486 0.769245,-0.03052 1.54422,-0.308093 2.194288,-0.720502 2.872662,-1.822446 4.824561,-4.810283 7.011719,-7.416015 1.145774,-1.36505 1.489507,-3.755907 3.189453,-4.291016 3.007137,-0.946585 5.88124,3.608329 8.972656,2.990234 1.871537,-0.374193 2.687635,-2.768094 4.318359,-3.759765 1.549751,-0.94243 3.283395,-1.637183 5.060547,-2 3.020157,-0.616585 6.186939,-0.637895 9.244141,-0.244141 1.27508,0.164225 5.320886,2.907252 7.91931,6.092547 2.800172,3.43261 4.1553,7.296807 5.369222,6.629116 0.318094,-0.17496 3.862731,1.004981 7.343729,0.85651 1.514875,-0.06461 5.822807,-1.465506 7.180617,-1.632512 1.19604,-0.147111 7.2235,3.426425 12.33738,2.758312 6.72744,-0.878922 12.75612,-6.033637 12.92059,-6.100963 0.19602,-0.08024 1.16922,-1.294412 -0.40074,-0.655967 -4.32822,1.76012 -9.35762,3.842991 -12.62963,5.343299 -1.18044,0.541267 -6.28542,-4.058721 -8.9274,-5.638656 -1.53838,-0.919972 -9.016525,2.838389 -10.724236,3.176325 -3.339348,0.660819 -6.515289,0.247045 -7.514454,-0.475829 -1.740973,-1.259556 -1.966209,-3.616586 -3.597268,-5.457228 -3.36031,-3.792092 -7.738407,-7.248331 -8.952901,-7.40472 -3.332377,-0.429105 -6.784168,-0.406369 -10.076172,0.265625 -2.061806,0.420875 -4.073302,1.22664 -5.871094,2.320313 -1.346286,0.819003 -2.019244,2.796306 -3.564453,3.105469 -3.215891,0.64343 -6.205614,-4.095835 -9.333985,-3.111329 -2.228596,0.701345 -2.679479,3.835576 -4.18164,5.625 -1.936808,2.30719 -3.464729,5.324062 -6.208984,6.566407 -0.724663,0.32806 -1.642839,0.374776 -2.384766,0.08789 -2.344514,-0.90657 -4.021459,-3.166043 -5.388672,-5.27539 -1.06805,-1.647796 -1.454528,-3.651972 -2.042969,-5.525391 -0.995651,-3.169852 -0.650699,-6.89273 -2.509765,-9.646484 -0.939853,-1.392164 -2.490543,-2.372948 -4.048828,-3 -2.703585,-1.08792 -7.167337,1.38453 -8.671875,-1.111328 -0.873952,-1.449787 1.368848,-3.114032 1.78125,-4.75586 0.974774,-3.880717 -1.76925,-9.740614 1.601562,-11.896484 4.109827,-2.628521 9.187791,3.430863 13.986328,4.310547 2.123927,0.389365 4.350305,0.849597 6.464844,0.412109 2.480592,-0.513223 4.800022,-1.860087 6.769531,-3.453125 4.45697,-3.605021 5.341347,-11.348165 11.068466,-11.5948703 6.830484,-0.2942346 4.974127,11.6363753 11.692142,12.9053753 5.201795,0.982593 7.976489,-2.743305 12.993326,-4.2529 1.49111,-0.448683 5.67964,-3.200926 7.061148,-2.447866 3.123537,1.70264 1.00866,6.113562 3.308328,8.827782 1.962135,2.315842 6.08152,0.299243 7.911746,2.720682 1.582465,2.093644 -1.314861,5.765215 0.253907,7.869141 1.149799,1.542033 4.792214,0.02582 5.474604,1.824219 0.94481,2.489983 -1.18824,4.613614 -3.172583,6.794278 -1.406028,1.545132 -2.222677,3.588859 -4.104969,3.72268 -2.151095,0.152933 -1.390577,-3.740973 -3.546662,-3.784536 -2.402276,-0.04854 -2.216029,-0.461387 -2.026084,1.933859 0.06589,0.830938 -3.782461,4.924857 -2.951524,4.858959 1.380156,-0.109454 3.51332,-2.873343 4.89753,-2.845553 2.369265,0.04757 1.714225,3.331322 4.077975,3.16291 2.190507,-0.156069 2.660088,-2.833287 4.073257,-4.104918 2.20933,-1.988053 4.77777,-3.266656 4.88614,-7.032113 0.037,-1.286761 1.97848,-3.01098 1.56224,-4.10791 -0.83874,-2.210306 -5.31548,-0.346868 -6.728518,-2.242188 C 98.291408,29.58123 101.1987,25.89794 99.611196,23.797504 97.740688,21.322628 94.052602,22.93387 92.047362,20.566843 89.365256,17.40083 92.652831,13.917975 89.009654,11.931875 82.519806,8.3938959 73.412107,17.002534 66.148999,15.630421 59.086702,14.296244 60.808713,4.5453326 54.941808,3.5402467 Z"
     id="path4142"
     inkscape:connector-curvature="0"
     sodipodi:nodetypes="sssssssssssssssssssssssssssssssssssssssssssssssssssssssssssssssssssssssssss" />
  <g
     style="font-style:normal;font-variant:normal;font-weight:normal;font-stretch:normal;font-size:40px;line-height:125%;font-family:UnPilgi;-inkscape-font-specification:'UnPilgi, Normal';text-align:start;letter-spacing:0px;word-spacing:0px;writing-mode:lr-tb;text-anchor:start;fill:#ff6600;fill-opacity:1;stroke:none;stroke-width:0.1;stroke-linecap:butt;stroke-linejoin:miter;stroke-miterlimit:4;stroke-dasharray:none;stroke-opacity:1"
     id="text4138"
     transform="matrix(1,0,0,1.6963891,9.9152543,-29.466348)">
    <path
       d="m 120.82814,38.055397 q 0,0.48284 -0.64,1.086387 -0.64,0.543194 -1,0.543194 -0.2,0 -1.56,-0.844969 0.16,1.689938 0.16,2.47455 0,4.526614 -2.36,7.846131 -2.36,3.259162 -5.4,3.259162 -1.84,0 -2.8,-1.871001 -0.96,-1.871001 -1.24,-4.526614 -0.24,-2.655613 -0.48,-5.311227 -0.24,-2.655613 -1.08,-4.526614 -0.8,-1.871001 -2.44,-1.871001 -0.52,0 -0.52,2.172776 0,1.026032 0.24,3.078098 0.28,2.052065 0.28,3.078097 0,2.897033 -1.52,4.345549 -0.960005,0.905323 -1.480005,0.905323 -0.04,0 -0.12,0 -0.12,-0.06036 -0.16,-0.06036 0.04,-0.48284 0.68,-1.267454 0.6,-0.844967 0.48,-2.233128 l -0.52,-6.880453 q -0.16,-2.172775 1.240005,-3.681647 1.44,-1.569225 2.92,-1.569225 1.84,0 2.8,1.870999 0.96,1.871001 1.24,4.526614 0.28,2.655614 0.52,5.371583 0.28,2.655613 1.08,4.526612 0.84,1.871001 2.48,1.871001 1.88,0 2.96,-2.293484 1.08,-2.293484 1.08,-5.250872 0,-1.75029 -0.48,-3.379871 -0.44,-1.629581 -0.92,-2.534904 -0.48,-0.965678 -0.48,-1.086389 0,-0.603547 0.64,-1.146741 0.68,-0.603549 1.12,-0.603549 0.08,0 1,0.663903 0.92,0.603549 1.96,1.327809 1.08,0.724256 1.12,0.784612 1.2,0.784613 1.2,1.207098 z"
       id="path4147"
       inkscape:connector-curvature="0"
       style="fill:#ff6600;fill-opacity:1;stroke:#ff6600;stroke-width:0.07677808;stroke-miterlimit:4;stroke-dasharray:none" />
    <path
       d="m 126.82814,36.129199 0,0.05706 q 0,0.285318 -0.68,0.570635 -0.68,0.285317 -1.08,0.285317 -0.04,0 -0.12,0 l -0.08,-0.02853 -0.12,-0.142659 q 0.16,-0.313848 0.76,-0.570634 0.6,-0.256785 1.04,-0.256785 0.04,0 0.28,0.08559 z m -1.16,16.291607 q -1.72,0 -2.32,-0.741824 -0.56,-0.770356 -0.56,-2.111347 0,-0.456507 0.12,-0.884483 -0.76,0.542103 -2,1.084205 -1.2,0.542103 -1.96,0.513571 l -0.24,-0.02853 q 0.12,-0.313849 0.48,-0.513571 0.36,-0.199722 0.88,-0.34238 0.56,-0.17119 0.8,-0.313849 1.52,-0.913015 2.16,-2.3396 0.2,-0.370913 0.52,-1.768966 l 0.32,-1.426586 q 0.2,-0.17119 0.8,-0.427976 0.6,-0.256785 0.88,-0.256785 0.32,0 0.32,0.542102 0,0.913015 -0.48,2.881703 -0.44,1.968688 -0.44,3.024362 0,0.99861 0.52,1.483649 0.52,0.456507 1.84,0.656229 0.24,-0.741824 1.24,-1.426585 1.04,-0.713293 2.04,-0.713293 0.28,0 0.28,0.114127 0,0.199722 -0.48,0.456507 -0.48,0.256785 -0.56,0.313849 -0.12,0.114127 -0.28,0.370912 -0.16,0.256785 -0.24,0.342381 -1.28,1.51218 -3.64,1.51218 z"
       id="path4149"
       inkscape:connector-curvature="0"
       style="fill:#008000;fill-opacity:1;stroke:#008000;stroke-width:0.07677808;stroke-miterlimit:4;stroke-dasharray:none;opacity:0.5" />
    <path
       d="m 138.34814,52.449338 q -0.56,0 -0.92,-0.324348 -0.32,-0.324348 -0.32,-0.737154 0,-0.619211 1.04,-1.179448 1.04,-0.560238 1.92,-0.560238 0.36,0 0.36,0.206404 -0.08,0.176917 -0.64,0.471779 -0.52,0.265375 -0.52,0.38332 0,0.324348 0.32,0.530751 0.36,0.176918 0.8,0.176918 1.16,0 1.16,-0.943558 0,-0.648697 -0.32,-1.297393 -0.32,-0.648695 -0.68,-1.061502 -0.32,-0.442293 -1,-1.120475 -0.64,-0.678182 -0.92,-1.032017 l -1.44,-1.710198 q -1.04,1.179447 -1.88,2.181977 -0.84,0.973044 -2.12,1.916602 -1.24,0.943558 -2.76,1.503796 -1.04,0.353834 -1.44,0.353834 -0.04,0 -0.12,0 -0.12,-0.02949 -0.16,-0.02949 0.04,-0.23589 0.32,-0.442293 0.36,-0.23589 1.44,-0.648697 1.08,-0.412806 1.92,-1.267905 0.16,-0.176918 1.12,-1.267906 1,-1.090989 1.72,-1.828144 0.72,-0.737154 1.68,-1.444823 1,-0.707668 1.64,-0.707668 0.04,0 0.12,0.02949 l 0.08,0 1.24,1.621741 q 0.4,0.501265 1.48,1.592254 1.08,1.061502 1.64,1.946088 0.56,0.884585 0.56,1.857629 0.52,0 1.52,-0.206403 1,-0.206403 1.48,-0.206403 0.16,0 0.16,0.117944 0,0.353835 -0.8,0.648697 -0.76,0.265375 -1.64,0.412806 -0.84,0.147431 -0.88,0.176917 -1.28,1.00253 -2.4,1.444823 -1.12,0.442293 -2.76,0.442293 z"
       id="path4151"
       inkscape:connector-curvature="0"
       style="fill:#008000;fill-opacity:1;stroke-width:0.07677808;stroke-miterlimit:4;stroke-dasharray:none;opacity:0.5" />
    <path
       d="m 166.82789,45.431626 q 0,0.176917 -0.6,0.442293 -0.56,0.23589 -1.24,0.412806 -0.64,0.176917 -1.36,0.383321 l -0.68,0.176917 -0.28,0.914072 q -0.24,0.914071 -0.36,1.149961 -0.84,1.503796 -3.36,2.535812 -2.52,1.00253 -4.84,1.00253 -2.2,0 -3.64,-0.973044 -1.44,-0.973044 -1.8,-2.594784 -0.6,0.324348 -1.8,0.825613 -1.2,0.501265 -1.92,0.501265 -0.04,0 -0.12,0 -0.08,-0.02949 -0.12,-0.02949 0.12,-0.412807 1.68,-1.032017 1.6,-0.61921 2.12,-1.149961 0.16,-0.147431 0.44,-0.973044 0.28,-0.8551 0.44,-1.090989 0.88,-1.415337 3.28,-2.388381 2.4,-0.973044 4.6,-0.973044 2.28,0 3.48,0.884585 1.24,0.855099 2,2.594784 3.36,-0.825613 3.76,-0.825613 0.32,0 0.32,0.206404 z m -6.36,1.032016 q -1.36,-2.889646 -4.68,-2.889646 -1.2,0 -2.48,0.412807 -1.24,0.412807 -1.64,1.149961 0.08,-0.05897 0.48,-0.294862 0.44,-0.235889 0.76,-0.353834 0.32,-0.147431 0.6,-0.147431 l 0.24,0.05898 q 0.04,0.02949 0.04,0.08846 0,0.05898 -0.56,0.589724 -0.56,0.501265 -0.56,0.825613 0,0.943558 3.04,0.943558 1.36,0 4.76,-0.38332 z m 0.2,0.737155 q -4.28,0.678182 -6.8,0.678182 -1.72,0 -3,-0.619209 -0.12,0.265375 -0.12,0.501265 0,1.503795 1.52,2.594784 1.52,1.061503 3.56,1.061503 2.08,0 3.48,-1.00253 1.44,-1.032017 1.44,-2.565299 0,-0.235889 -0.08,-0.648696 z"
       id="path4153"
       inkscape:connector-curvature="0"
       style="fill:#008000;fill-opacity:1;stroke-width:0.07677808;stroke-miterlimit:4;stroke-dasharray:none;opacity:0.5" />
    <path
       d="m 181.06789,52.419852 q -1.92,0 -2.92,-0.914072 -0.96,-0.914072 -0.96,-2.358895 0,-1.297392 0.72,-2.653756 0.72,-1.356365 1.88,-2.358895 -3,0.648696 -5.24,0.648696 -0.28,0 -2.52,-0.23589 0,3.155022 -5.16,5.160083 -1.48,0.530751 -1.88,0.501265 l -0.28,-0.02949 q 0.08,-0.324349 0.96,-0.707669 0.84,-0.412807 1.76,-0.766641 0.92,-0.38332 1.68,-1.208934 0.8,-0.855099 0.8,-2.00506 0,-0.737155 -0.56,-1.385851 -0.56,-0.648696 -0.56,-0.707668 0,-0.265376 0.68,-0.530752 0.68,-0.294861 1.08,-0.294861 0.24,0 1,0.294861 0.8,0.265376 0.88,0.294863 2.08,0.589723 4.16,0.589723 2.44,0 4.48,-0.737154 1.2,-0.442293 1.44,-0.442293 0.16,0 0.24,0.02949 0.04,0.02949 0.04,0.117945 0,0.02949 -0.88,0.825613 -0.84,0.796127 -1.72,2.09352 -0.88,1.267905 -0.88,2.506325 0,1.208934 0.72,2.24095 0.76,1.002531 2.32,1.002531 0.24,0 0.92,-0.530752 0.68,-0.560238 1.56,-1.090989 0.92,-0.560237 1.72,-0.560237 0.32,0 0.32,0.147431 0,0.235889 -0.68,0.560237 -0.68,0.294862 -0.76,0.353834 -0.8,0.678183 -1.24,1.032017 -0.44,0.353834 -1.36,0.737154 -0.88,0.383321 -1.76,0.383321 z"
       id="path4155"
       inkscape:connector-curvature="0"
       style="fill:#008000;fill-opacity:1;stroke:#ff6600;stroke-width:0.07677808;stroke-miterlimit:4;stroke-dasharray:none;opacity:0.5" />
    <path
       style="opacity:1;fill:#ff6600;fill-opacity:1;stroke:#ff6600;stroke-width:0;stroke-linecap:square;stroke-linejoin:miter;stroke-miterlimit:4;stroke-dasharray:none;stroke-opacity:1"
       id="path4139"
       d="m -54.74782,19.030921 c 0.962211,-0.0041 1.794399,-0.149442 2.654013,-0.293157 1.002846,-0.145683 1.939225,-0.336403 2.885638,-0.525964 1.611942,-0.325151 4.247162,-0.882519 -3.076847,0.676962 -0.153265,0.03263 0.296351,-0.07172 0.441039,-0.109533 0.144801,-0.03785 0.600864,-0.166096 0.763089,-0.211512 1.349074,-0.275911 5.215841,-1.812733 5.665996,-0.5887 0.05899,0.354922 0.0287,0.711111 0.02739,1.066554 0.01753,0.33677 -0.07656,0.674127 0.11147,1.00545 0.164976,0.167763 0.579442,0.594457 1.210947,0.434831 -1.479438,0.304984 -2.958876,0.609967 -4.438316,0.91495 0.07432,-0.01687 0.155185,-0.03019 0.222951,-0.05062 0.367031,-0.110685 0.691299,-0.258514 1.026347,-0.382876 0.793548,-0.291089 1.573975,-0.587231 2.355747,-0.882818 0.729577,-0.267974 1.407648,-0.556733 2.198074,-0.799689 1.518877,-0.31362 4.918076,-1.712941 6.382238,-0.670071 0.27361,0.26225 0.281892,0.546539 0.295452,0.824362 -0.0063,0.353242 -0.02365,0.706429 -0.0271,1.059679 0.0045,0.353011 0.0056,0.706 -0.0024,1.059003 -0.06865,0.37358 -0.201806,0.74473 -0.277428,1.118142 -0.07096,0.32638 -0.06344,0.65408 -0.07648,0.981239 -0.0052,0.31045 -0.03062,0.619923 0.08987,0.927619 0.170949,0.301751 0.64165,0.559941 1.256672,0.757207 0.799074,0.203862 1.820329,0.107854 2.7022,0.0326 0.741233,-0.07712 1.397572,-0.221037 2.051462,-0.368085 0.158111,-0.03556 0.63818,-0.138521 0.478672,-0.103867 -1.343697,0.291925 -2.687491,0.583786 -4.031237,0.875679 2.33331,-0.521073 4.495869,-1.218501 7.134531,-1.489159 0.93234,-0.03569 1.586445,0.160048 2.137004,0.418646 0.432149,0.250607 0.923079,0.446896 1.67236,0.550295 0.80413,0.07397 1.64373,0.06729 2.46641,0.06864 0.81908,-0.0049 1.633669,0.03083 2.408509,-0.08305 0.70272,-0.1112 1.44889,-0.157723 2.2024,-0.183134 0.72908,-0.01718 1.43928,0.01121 2.12634,-0.09353 2.279405,-0.504271 -5.624469,1.342441 -3.60085,0.750487 0,0 4.882065,-0.765256 4.882065,-0.765256 l 0,0 c -1.319145,0.637476 -3.455465,0.97341 -5.466525,1.232971 -0.72117,0.05116 -1.454279,0.03284 -2.181419,0.06835 -0.73521,0.04074 -1.44226,0.117047 -2.14664,0.205753 -0.819141,0.05579 -1.651301,0.03229 -2.480412,0.03281 -0.877562,-0.0072 -1.785578,-0.0017 -2.612518,-0.128102 -0.758545,-0.146451 -1.312004,-0.366097 -1.798522,-0.628847 -0.482284,-0.210353 -1.024973,-0.320953 -1.773114,-0.225818 -1.695571,0.242226 -3.906939,0.813233 3.287204,-0.76798 0.151178,-0.03323 -0.30487,0.06489 -0.453103,0.09996 -0.15529,0.03674 -0.3047,0.07692 -0.45705,0.115375 -0.153539,0.03573 -0.307079,0.07145 -0.460618,0.107169 -1.640734,0.360762 -3.280675,0.72204 -4.922202,1.082287 -0.829484,0.182037 -1.687602,0.35029 -2.638344,0.420397 -1.056782,0.06153 -2.114432,0.102056 -2.990017,-0.177958 -0.677717,-0.238815 -1.234478,-0.525709 -1.458738,-0.871116 -0.136318,-0.318543 -0.135844,-0.635678 -0.115659,-0.958169 -0.0047,-0.331422 0.01657,-0.662839 0.05671,-0.993922 0.07946,-0.370173 0.219832,-0.737558 0.311587,-1.107233 -0.0073,-0.353526 -0.0048,-0.707033 0.0065,-1.060547 0.0036,-0.349796 0.0014,-0.699622 -0.0068,-1.049402 -0.0048,-0.246933 0.01075,-0.500849 -0.191554,-0.73847 -0.159193,-0.116091 -0.349425,-0.193563 -0.731901,-0.16841 -0.106855,0.007 -0.402285,0.05905 -0.309717,0.03769 1.372066,-0.316596 2.770289,-0.616713 4.155434,-0.925069 -0.869624,0.206926 -1.524949,0.506105 -2.259122,0.774307 -0.774172,0.291726 -1.550224,0.582766 -2.316592,0.877427 -0.321671,0.121825 -0.707317,0.239904 -0.990942,0.374659 -0.06227,0.02958 -0.07265,0.07712 -0.159061,0.09617 -1.584188,0.349143 -3.214275,0.667662 -4.821413,1.001492 -0.84043,-0.09349 -1.263993,-0.388211 -1.55434,-0.683447 -0.231653,-0.345307 -0.173737,-0.69582 -0.156269,-1.049772 0.0097,-0.344658 0.02117,-0.689968 -0.03896,-1.034094 -0.02195,-0.07109 -0.02628,-0.182948 -0.104183,-0.182974 -0.08189,-2.7e-5 -0.279567,0.0645 -0.208883,0.04887 1.412007,-0.312162 2.82447,-0.624029 4.236705,-0.936044 -0.425642,0.101788 -0.792195,0.236519 -1.223903,0.333429 -1.945888,0.436813 -3.881126,0.882549 -5.88771,1.278876 -0.947318,0.19232 -1.92814,0.354508 -2.91691,0.513923 -0.900908,0.141661 -1.822917,0.225332 -2.787401,0.279598 0,0 4.24821,-1.215449 4.24821,-1.215449 z"
       inkscape:connector-curvature="0" />
    <path
       style="opacity:1;fill:#ff6600;fill-opacity:1;stroke:#000000;stroke-width:0;stroke-linecap:square;stroke-linejoin:miter;stroke-miterlimit:4;stroke-dasharray:none;stroke-opacity:1"
       id="path4164"
       d="m 86.674235,6.9651697 c -6.380063,-0.02809 -4.093743,0.16155 -2.839395,-0.08994 0.38803,-0.0778 0.749161,-0.18938 1.110307,-0.301825 0.647527,-0.230399 1.270057,-0.486951 1.869359,-0.758962 0.70248,-0.298488 1.364339,-0.626133 2.003461,-0.970049 0.782373,-0.441592 1.564557,-0.881744 2.389707,-1.295732 1.22263,-0.622198 4.341834,-1.109423 4.923681,-0.03315 0.08772,0.339868 -0.03312,0.698884 -0.149714,1.033776 -0.11967,0.461045 -0.357416,0.90478 -0.557223,1.354751 -0.131544,0.38596 -0.300934,0.766804 -0.408038,1.155588 -0.005,0.14199 -0.211824,0.712837 0.01783,0.802475 0.03146,0.01228 0.07503,-0.0048 0.112544,-0.0072 1.007601,-0.547519 0.101086,-0.02176 -3.408115,-0.07549 -0.06492,-10e-4 0.122132,-0.02783 0.1761,-0.04913 0.198924,-0.07849 0.338059,-0.217606 0.477392,-0.327917 0.381306,-0.279026 0.676961,-0.592416 1.00489,-0.892704 0.382292,-0.313272 0.799243,-0.611419 1.203175,-0.915226 0.404558,-0.303678 0.757998,-0.635459 1.271358,-0.880726 1.197225,-0.459908 0.420578,-0.184001 3.980567,0.05511 0.08284,0.0055 0.136803,0.601487 0.141365,0.667872 0.005,0.399501 0.01422,0.799038 0.0063,1.198539 4.14e-4,0.368117 -0.002,0.736209 -0.0035,1.104316 0.02681,0.349889 -0.04557,0.703666 0.035,1.051168 0.055,0.09812 0.14973,0.206955 0.34556,0.227273 0.0584,0.0061 0.23663,-0.0078 0.17734,-0.0086 -3.475811,-0.04457 -4.678797,0.05792 -3.251254,-0.05456 0.725705,-0.145417 1.311704,-0.452777 1.816378,-0.78305 1.587966,-1.181121 0.575961,-0.694817 4.815656,-0.688761 0.17808,0.287337 0.14372,0.598264 0.13822,0.899061 -0.008,0.432181 -0.0111,0.864382 -0.0171,1.296574 -0.008,0.4616773 0.31676,0.8514913 0.75965,1.2176773 0.44271,0.334261 0.95922,0.630958 1.46817,0.929529 0.53973,0.300417 1.05059,0.613828 1.53055,0.94725 0.42565,0.334032 1.02532,0.550412 1.64357,0.740804 0.59149,0.148849 1.23242,0.211447 1.84062,0.330502 0.56475,0.154218 1.15661,0.277804 1.75781,0.373426 0.58709,0.07335 1.10671,0.239961 1.69438,0.31755 0.63476,0.06765 1.25892,0.156188 1.902,0.197459 0.60014,0.03086 1.20335,0.02895 1.80525,0.03005 1.28619,5.38e-4 3.35447,6.48e-4 -2.57094,2.42e-4 -0.12296,-9e-6 0.24593,-1.82e-4 0.36889,-3.27e-4 0.18236,-2.14e-4 0.49561,-7.67e-4 0.68059,-0.0011 0.58671,-0.0015 1.17343,-0.0013 1.76015,-0.0012 1.90959,0.0014 3.81919,0.0016 5.72878,2.82e-4 l 0.31265,-2.34e-4 c -0.21395,-2.48e-4 0.86307,7.07e-4 0.64731,1.95e-4 -5.81034,-0.01458 -4.03948,0.142262 -2.77257,-0.08779 0.68569,-0.13169 3.9601,-0.581841 4.55469,-0.816364 0.50976,-0.207799 1.1646,-1.012362 1.65279,-1.236788 l 1.21721,0.124865 -1.0805,0.936686 c -0.49943,0.223966 -0.28182,0.384373 -0.77812,0.610704 -0.58972,0.246119 -1.18395,0.499562 -1.87155,0.642407 -1.70829,0.482507 -3.70335,0.121096 -5.55315,0.169087 -1.43613,-0.0011 -0.38639,-1.96e-4 2.99464,-4.1e-4 0.11922,-8e-6 -0.23843,-6.4e-5 -0.35765,-1.4e-5 -0.33867,1.44e-4 -0.67734,4.04e-4 -1.01601,7.67e-4 -0.58964,2.18e-4 -1.17928,6.48e-4 -1.76892,1.68e-4 -1.93917,-5.2e-5 -3.87834,0.0033 -5.81749,0 -0.60909,-0.0035 -1.22057,-0.0048 -1.82482,-0.056 -0.63976,-0.05856 -1.26957,-0.146732 -1.90297,-0.224955 -0.57088,-0.100364 -1.11137,-0.251847 -1.69692,-0.324849 -0.59307,-0.113993 -1.17552,-0.244461 -1.75844,-0.374635 -0.62545,-0.101616 -1.26676,-0.194421 -1.84003,-0.37833 -0.62479,-0.221346 -1.2047,-0.464763 -1.64036,-0.817071 -0.4854,-0.32586 -1.01431,-0.626169 -1.53708,-0.931002 -0.5187,-0.307755 -0.97993,-0.653306 -1.40655,-1.008515 -0.44947,-0.411301 -0.81881,-0.812907 -0.82507,-1.3107753 -0.001,-0.43133 0.006,-0.86266 -0.003,-1.29398 -0.004,-0.07955 0.002,-0.59347 -0.11867,-0.637949 -0.0179,-0.0066 -0.0366,0.01241 -0.0549,0.01862 1.21918,-0.0097 2.43841,-0.01788 3.65756,-0.02907 0.0453,-4.15e-4 -0.0934,-0.0127 -0.13573,-0.0032 -0.069,0.01538 -0.12727,0.04508 -0.18225,0.0741 -0.28342,0.149595 -0.47233,0.348838 -0.71592,0.518483 -0.49658,0.364979 -1.10493,0.677674 -1.79679,0.909393 -1.380587,0.394272 -4.271256,0.649568 -4.706678,-0.419684 -0.0517,-0.357478 -0.01968,-0.716858 -0.02483,-1.075321 -7.1e-5,-0.368406 2.97e-4,-0.736769 0.0076,-1.105167 -0.0011,-0.395134 0.02357,-0.790622 -0.01248,-1.185463 -0.01423,-0.120669 -0.01762,-0.211456 -0.05804,-0.329153 -0.01234,-0.03593 -0.02325,-0.07306 -0.05157,-0.105695 -0.0138,-0.0159 -0.100211,-0.0342 -0.0699,-0.03428 3.603338,-0.01036 4.682138,0.40385 3.513398,-0.02459 -0.623347,0.09323 -0.920139,0.513633 -1.295066,0.785847 -0.401496,0.29763 -0.799207,0.596676 -1.196357,0.896083 -0.338374,0.298965 -0.620919,0.61946 -0.998349,0.902991 -1.011243,0.850493 -2.085543,1.70718 -4.724822,0.510948 -0.299776,-0.31516 -0.137752,-0.680858 -0.08488,-1.023778 0.09405,-0.399285 0.270058,-0.787808 0.423138,-1.180167 0.207264,-0.443201 0.439069,-0.882514 0.53631,-1.340549 0.09366,-0.287587 0.223274,-0.608972 0.108423,-0.897088 -0.09154,-0.06911 -0.03282,-0.0516 -0.169804,-0.05936 1.18687,-0.0067 2.373739,-0.01337 3.560609,-0.02005 0.07723,-5.17e-4 -0.156161,-0.0118 -0.231676,-0.0022 -0.259587,0.03285 -0.467279,0.129778 -0.685394,0.21082 -0.841513,0.395091 -1.604667,0.840389 -2.371356,1.284454 -0.630265,0.346535 -1.261991,0.69402 -1.966099,0.988915 -0.604476,0.287385 -1.252889,0.538762 -1.898219,0.792645 -2.054013,0.702943 -2.550306,0.575414 -5.659334,0.508353 l 3.722328,-0.347538 z"
       inkscape:connector-curvature="0"
       sodipodi:nodetypes="cscccccccccccccccccccccccccccccccccccccsscccccccccccccsscccccccccccccccccscccccccccccccccccccccccccccc" />
  </g>
</svg>
